<?xml version="1.0" encoding="UTF-8" standalone="no" ?>
<!DOCTYPE svg PUBLIC "-//W3C//DTD SVG 1.1//EN" "http://www.w3.org/Graphics/SVG/1.1/DTD/svg11.dtd">
<svg xmlns="http://www.w3.org/2000/svg" xmlns:xlink="http://www.w3.org/1999/xlink" version="1.1" width="1080" height="1080" viewBox="0 0 1080 1080" xml:space="preserve">
<desc>Created with Fabric.js 5.2.4</desc>
<defs>
</defs>
<g transform="matrix(1 0 0 1 540 540)" id="05702003-9a62-4ad3-9b47-3bce4713c3e8"  >
</g>
<g transform="matrix(1 0 0 1 540 540)" id="e6848b4d-125a-4ed9-aee2-23b1ef8c9c18"  >
<rect style="stroke: none; stroke-width: 1; stroke-dasharray: none; stroke-linecap: butt; stroke-dashoffset: 0; stroke-linejoin: miter; stroke-miterlimit: 4; fill: rgb(255,255,255); fill-rule: nonzero; opacity: 1; visibility: hidden;" vector-effect="non-scaling-stroke"  x="-540" y="-540" rx="0" ry="0" width="1080" height="1080" />
</g>
<g transform="matrix(1 0 0 1 540 540)"  >
<path style="stroke: none; stroke-width: 1; stroke-dasharray: none; stroke-linecap: butt; stroke-dashoffset: 0; stroke-linejoin: miter; stroke-miterlimit: 4; fill: rgb(153,102,255); fill-rule: evenodd; opacity: 1;" vector-effect="non-scaling-stroke"  transform=" translate(-161.07, -161.07)" d="M 250.55 294.988 C 184.17765807708918 339.3382479457863 95.33389250347813 328.3821908954139 41.72454804279616 269.2360122218896 C -11.88479641788581 210.08983354836533 -14.083827249013154 120.60009038864047 36.555771098087405 58.89220317453433 C 87.19536944518796 -2.8156840395718064 175.39378506107283 -18.122197366825674 243.86434119281475 22.914556990634026 C 312.33489732455666 63.95131134809375 340.4175324160411 148.9490493986342 309.87200000000007 222.7 C 297.6819639950025 252.13234810866533 277.03771109163574 277.28881204916934 250.55 294.988 Z M 106.065 122.268 C 104.08960060170669 121.43525746338423 101.95505391515961 121.04774778820334 99.813 121.133 C 95.42593358874467 121.02855592433323 91.20670559911831 122.82003327767605 88.235 126.049 C 85.03920501362464 129.5070422021486 83.21696472124846 134.01356620390328 83.111 138.721 L 83.111 184.055 C 83.18256331286705 186.43381505769796 83.67518216517873 188.78111849623878 84.566 190.988 C 85.42481397598019 193.12963850686089 86.68011725088152 195.08994724263923 88.266 196.766 C 89.78521268228009 198.3714401644057 91.61994854652966 199.645439348674 93.655 200.50799999999998 C 95.63039939829332 201.34074253661575 97.76494608484039 201.72825221179664 99.907 201.64299999999997 C 102.06591882974946 201.71252037526205 104.21341204819686 201.30269342517667 106.195 200.44299999999998 C 108.2376647201819 199.55222461312482 110.07333745683347 198.24740214477964 111.586 196.611 C 113.16607057641198 194.9009974716427 114.40795775350881 192.90719171956047 115.246 190.73499999999999 C 116.11293537916337 188.4984881303682 116.57448010674779 186.12541002991955 116.609 183.72699999999998 L 116.609 138.721 C 116.53707922861773 136.34222750298827 116.04447342509543 133.99498624125627 115.154 131.788 C 114.29531447541484 129.6462953600599 113.0399965572901 127.68596375710725 111.454 126.00999999999999 C 109.93474956248349 124.40460376481857 108.10002348364738 123.13061137532057 106.065 122.268 Z M 160.47 70.868 L 160.37 70.868 C 151.145 70.868 143.67000000000002 77.96799999999999 143.67000000000002 86.71799999999999 L 143.67000000000002 235.414 C 143.67000000000002 244.16799999999998 151.14700000000002 251.26399999999998 160.37 251.26399999999998 L 160.47 251.26399999999998 C 169.694 251.26399999999998 177.17 244.164 177.17 235.414 L 177.17 86.719 C 177.173 77.965 169.694 70.869 160.47 70.869 Z M 233.147 111.894 C 230.33200405779613 107.97948113542371 225.80508273762337 105.65897614893285 220.9835 105.65897614893285 C 216.16191726237662 105.65897614893285 211.63499594220383 107.97948113542371 208.82 111.894 C 205.64532290225162 115.75607418996815 204.0171736574566 120.6590519660975 204.251 125.653 L 204.251 201.632 C 204.0171736574566 206.62594803390252 205.64532290225162 211.52892581003186 208.82 215.39100000000002 C 211.63499594220383 219.30551886457633 216.16191726237662 221.62602385106717 220.9835 221.62602385106717 C 225.80508273762337 221.62602385106717 230.33200405779615 219.3055188645763 233.147 215.39100000000002 C 236.32167709774836 211.5289258100319 237.9498263425434 206.62594803390252 237.71599999999998 201.632 L 237.71599999999998 125.654 C 237.9501060286469 120.66018163382981 236.3223180275353 115.75721860683882 233.148 111.895 Z" stroke-linecap="round" />
</g>
</svg>